<svg width="48" height="36" viewBox="0 0 48 36" fill="none" xmlns="http://www.w3.org/2000/svg">
<path d="M17.4619 20.6534L24 24.4174L17.5721 28.118L4.60865 35.5852C2.55844 36.7645 0 35.2888 0 32.9342V3.06784C0 0.709342 2.55977 -0.762405 4.60865 0.416845L17.5721 7.88014L24 11.5833L17.4619 15.3474C15.4157 16.5266 15.4157 19.4741 17.4619 20.6534Z" fill="white"/>
<path d="M48 3.0677V32.9328C48 35.2873 45.4402 36.763 43.3914 35.5838L30.428 28.1165L24 24.416L30.5381 20.6519C32.5843 19.4726 32.5843 16.5252 30.5381 15.3459L24 11.5819L30.428 7.87867L43.3914 0.41538C45.4416 -0.76387 48 0.707878 48 3.06638V3.0677Z" fill="white"/>
</svg>
