<?xml version="1.0" encoding="UTF-8"?>
<svg id="Layer_1" data-name="Layer 1" xmlns="http://www.w3.org/2000/svg" viewBox="0 0 2627 460">
  <defs>
    <style>
      .cls-1 {
        fill: #0a0a0a;
        stroke-width: 0px;
      }
    </style>
  </defs>
  <g>
    <path class="cls-1" d="m223.42,253.71l58.28,33.63-57.3,33.07-115.54,66.73c-18.27,10.54-41.08-2.65-41.08-23.7V96.55c0-21.08,22.81-34.23,41.08-23.7l115.54,66.7,57.3,33.1-58.28,33.63c-18.24,10.54-18.24,36.88,0,47.42Z"/>
    <path class="cls-1" d="m495.62,96.55v266.9c0,21.05-22.81,34.23-41.08,23.7l-115.54-66.73-57.3-33.07,58.28-33.63c18.24-10.54,18.24-36.88,0-47.42l-58.28-33.63,57.3-33.1,115.54-66.7c18.27-10.54,41.08,2.62,41.08,23.7Z"/>
  </g>
  <g>
    <path class="cls-1" d="m870.84,115.23v252.68h-50.68v-164.35l-67.7,164.35h-38.37l-68.06-164.35v164.35h-50.68V115.23h57.56l80.36,187.88,80.37-187.88h57.2Z"/>
    <path class="cls-1" d="m924.23,134.96c-5.92-5.67-8.87-12.73-8.87-21.18s2.95-15.5,8.87-21.18c5.91-5.67,13.33-8.51,22.26-8.51s16.35,2.84,22.26,8.51c5.91,5.67,8.87,12.73,8.87,21.18s-2.96,15.51-8.87,21.18c-5.92,5.67-13.34,8.51-22.26,8.51s-16.35-2.83-22.26-8.51Zm47.24,32.4v200.55h-50.68v-200.55h50.68Z"/>
    <path class="cls-1" d="m1021.07,213.15c8.44-15.57,20.15-27.63,35.11-36.2,14.96-8.56,32.09-12.85,51.4-12.85,24.85,0,45.43,6.22,61.72,18.64,16.29,12.43,27.21,29.86,32.76,52.31h-54.66c-2.9-8.69-7.78-15.5-14.66-20.45-6.88-4.94-15.38-7.42-25.52-7.42-14.48,0-25.95,5.25-34.39,15.75-8.45,10.5-12.67,25.4-12.67,44.71s4.22,33.85,12.67,44.35c8.44,10.5,19.91,15.75,34.39,15.75,20.51,0,33.9-9.17,40.18-27.51h54.66c-5.55,21.72-16.53,38.98-32.94,51.77-16.42,12.79-36.92,19.19-61.54,19.19-19.31,0-36.44-4.28-51.4-12.85-14.97-8.56-26.67-20.63-35.11-36.2-8.45-15.57-12.67-33.72-12.67-54.48s4.22-38.92,12.67-54.48Z"/>
    <path class="cls-1" d="m1315.56,173.51c10.5-6.03,22.5-9.05,36.02-9.05v53.22h-13.39c-15.93,0-27.94,3.74-36.02,11.22-8.09,7.48-12.13,20.52-12.13,39.1v99.91h-50.68v-200.55h50.68v31.13c6.52-10.62,15.02-18.94,25.52-24.98Z"/>
    <path class="cls-1" d="m1422.53,358.32c-15.45-8.56-27.57-20.69-36.38-36.38-8.81-15.69-13.21-33.78-13.21-54.3s4.52-38.61,13.57-54.3c9.05-15.69,21.41-27.81,37.11-36.38,15.69-8.56,33.18-12.85,52.49-12.85s36.8,4.29,52.49,12.85c15.69,8.57,28.05,20.7,37.11,36.38,9.05,15.69,13.57,33.79,13.57,54.3s-4.65,38.61-13.94,54.3c-9.29,15.69-21.85,27.82-37.65,36.38-15.81,8.57-33.49,12.85-53.03,12.85s-36.69-4.28-52.13-12.85Zm78.01-38.01c8.08-4.46,14.54-11.16,19.37-20.09,4.82-8.93,7.24-19.79,7.24-32.58,0-19.06-5.01-33.72-15.02-43.98-10.02-10.25-22.26-15.39-36.74-15.39s-26.61,5.13-36.38,15.39c-9.77,10.26-14.66,24.92-14.66,43.98s4.76,33.73,14.3,43.98c9.53,10.26,21.54,15.38,36.02,15.38,9.17,0,17.8-2.23,25.88-6.7Z"/>
    <path class="cls-1" d="m1788.52,115.23v40.91h-67.33v211.77h-50.68v-211.77h-67.33v-40.91h185.35Z"/>
    <path class="cls-1" d="m2010.43,282.84h-146.61c1.2,14.48,6.27,25.83,15.2,34.03,8.93,8.21,19.91,12.31,32.94,12.31,18.82,0,32.22-8.08,40.18-24.25h54.66c-5.79,19.31-16.9,35.18-33.3,47.6-16.41,12.43-36.56,18.64-60.45,18.64-19.31,0-36.62-4.28-51.95-12.85-15.33-8.56-27.27-20.69-35.84-36.38-8.57-15.69-12.85-33.78-12.85-54.3s4.22-38.97,12.67-54.66c8.44-15.69,20.27-27.75,35.48-36.2,15.2-8.44,32.7-12.67,52.49-12.67s36.14,4.11,51.22,12.31c15.08,8.21,26.79,19.85,35.11,34.93,8.33,15.09,12.49,32.4,12.49,51.95,0,7.24-.49,13.76-1.45,19.55Zm-51.04-34.03c-.24-13.03-4.95-23.47-14.12-31.31-9.17-7.84-20.4-11.76-33.67-11.76-12.55,0-23.11,3.8-31.67,11.4-8.57,7.6-13.82,18.16-15.75,31.67h95.21Z"/>
    <path class="cls-1" d="m2048.44,213.15c8.44-15.57,20.15-27.63,35.11-36.2,14.96-8.56,32.09-12.85,51.4-12.85,24.85,0,45.43,6.22,61.72,18.64,16.29,12.43,27.21,29.86,32.76,52.31h-54.66c-2.9-8.69-7.78-15.5-14.66-20.45-6.88-4.94-15.38-7.42-25.52-7.42-14.48,0-25.95,5.25-34.39,15.75-8.45,10.5-12.67,25.4-12.67,44.71s4.22,33.85,12.67,44.35c8.44,10.5,19.91,15.75,34.39,15.75,20.51,0,33.9-9.17,40.18-27.51h54.66c-5.55,21.72-16.53,38.98-32.94,51.77-16.42,12.79-36.92,19.19-61.54,19.19-19.31,0-36.44-4.28-51.4-12.85-14.97-8.56-26.67-20.63-35.11-36.2-8.45-15.57-12.67-33.72-12.67-54.48s4.22-38.92,12.67-54.48Z"/>
    <path class="cls-1" d="m2420.22,174.42c11.82,6.64,21.05,16.41,27.69,29.32,6.63,12.91,9.96,28.42,9.96,46.52v117.65h-50.68v-110.77c0-15.93-3.98-28.17-11.95-36.74-7.96-8.56-18.82-12.85-32.58-12.85s-25.04,4.29-33.12,12.85c-8.09,8.57-12.13,20.82-12.13,36.74v110.77h-50.68V100.03h50.68v92.31c6.52-8.69,15.2-15.5,26.06-20.45,10.86-4.94,22.93-7.42,36.2-7.42,15.2,0,28.72,3.32,40.54,9.96Z"/>
    <path class="cls-1" d="m2505.83,361.94c-5.92-5.67-8.87-12.73-8.87-21.18s2.95-15.5,8.87-21.18c5.91-5.67,13.45-8.51,22.62-8.51s16.29,2.84,22.08,8.51c5.79,5.67,8.69,12.73,8.69,21.18s-2.9,15.51-8.69,21.18c-5.79,5.67-13.16,8.51-22.08,8.51s-16.71-2.83-22.62-8.51Z"/>
  </g>
</svg>