<?xml version="1.0" encoding="UTF-8"?>
<svg id="Layer_1" data-name="Layer 1" xmlns="http://www.w3.org/2000/svg" viewBox="0 0 413.08 402.13">
  <defs>
    <style>
      .cls-1 {
        fill: #0a0a0a;
        stroke-width: 0px;
      }
    </style>
  </defs>
  <path class="cls-1" d="m157.27,221.11l49.27,28.44-48.44,27.96-97.69,56.42c-15.45,8.91-34.73-2.24-34.73-20.03V88.24c0-17.82,19.29-28.94,34.73-20.03l97.69,56.39,48.44,27.98-49.27,28.44c-15.42,8.91-15.42,31.18,0,40.09Z"/>
  <path class="cls-1" d="m387.4,88.24v225.65c0,17.79-19.29,28.94-34.73,20.03l-97.69-56.42-48.44-27.96,49.27-28.44c15.42-8.91,15.42-31.18,0-40.09l-49.27-28.44,48.44-27.98,97.69-56.39c15.45-8.91,34.73,2.21,34.73,20.03Z"/>
</svg>