<svg width="200" height="30" viewBox="0 0 200 30" fill="none" xmlns="http://www.w3.org/2000/svg">
<path d="M66.0049 6.22952V24.4869H61.5561V13.5369L57.47 24.4869H53.8791L49.766 13.5124V24.4869H45.3147V6.22952H50.5724L55.7003 18.8698L60.7742 6.22952H66.0049Z" fill="#0A0A0A"/>
<path d="M69.532 7.77526C69.0369 7.31717 68.7893 6.74885 68.7893 6.07274C68.7893 5.39663 69.0369 4.8038 69.532 4.34327C70.0271 3.88518 70.6644 3.65491 71.4439 3.65491C72.2234 3.65491 72.8362 3.88518 73.3313 4.34327C73.8264 4.8038 74.074 5.37948 74.074 6.07274C74.074 6.76599 73.8264 7.31717 73.3313 7.77526C72.8362 8.2358 72.2087 8.46362 71.4439 8.46362C70.6791 8.46362 70.0247 8.23335 69.532 7.77526ZM73.6573 9.97262V24.4845H69.2085V9.97262H73.6573Z" fill="#0A0A0A"/>
<path d="M76.9224 13.2772C77.5376 12.1504 78.398 11.2832 79.4985 10.6757C80.5991 10.0682 81.8615 9.7644 83.2856 9.7644C85.1068 9.7644 86.629 10.2421 87.8521 11.195C89.0752 12.1479 89.8768 13.4928 90.2591 15.2272H85.5235C85.124 14.1175 84.3518 13.5614 83.2072 13.5614C82.3909 13.5614 81.7414 13.8774 81.256 14.5119C80.7707 15.1439 80.528 16.0503 80.528 17.2286C80.528 18.4069 80.7707 19.3132 81.256 19.9477C81.7414 20.5797 82.3934 20.8957 83.2072 20.8957C84.3518 20.8957 85.124 20.3421 85.5235 19.2324H90.2591C89.8768 20.9325 89.0703 22.2675 87.8398 23.2376C86.6069 24.2101 85.0896 24.6952 83.2856 24.6952C81.8639 24.6952 80.6016 24.3914 79.4985 23.7839C78.3955 23.1764 77.5376 22.3092 76.9224 21.1823C76.3071 20.0555 75.9983 18.7376 75.9983 17.2286C75.9983 15.7196 76.3071 14.4016 76.9224 13.2748V13.2772Z" fill="#0A0A0A"/>
<path d="M99.0294 10.5067C99.8113 10.0486 100.677 9.8183 101.633 9.8183V14.5266H100.409C99.299 14.5266 98.4656 14.7642 97.9117 15.2419C97.3552 15.7196 97.0782 16.5549 97.0782 17.7528V24.4894H92.6294V9.97753H97.0782V12.3954C97.5979 11.5992 98.2499 10.9696 99.0294 10.5091V10.5067Z" fill="#0A0A0A"/>
<path d="M106.537 23.7839C105.4 23.1764 104.508 22.3092 103.858 21.1823C103.209 20.0555 102.883 18.7376 102.883 17.2286C102.883 15.7196 103.211 14.4237 103.87 13.2895C104.53 12.1528 105.432 11.2832 106.576 10.6757C107.721 10.0682 109.006 9.7644 110.427 9.7644C111.849 9.7644 113.133 10.0682 114.278 10.6757C115.423 11.2832 116.325 12.1553 116.984 13.2895C117.643 14.4261 117.972 15.7392 117.972 17.2286C117.972 18.718 117.639 20.0334 116.969 21.1701C116.3 22.3067 115.391 23.1764 114.236 23.7839C113.082 24.3914 111.795 24.6952 110.371 24.6952C108.947 24.6952 107.67 24.3914 106.532 23.7839H106.537ZM112.55 19.9085C113.148 19.2838 113.447 18.3922 113.447 17.2286C113.447 16.065 113.155 15.1733 112.574 14.5486C111.994 13.924 111.278 13.6128 110.427 13.6128C109.577 13.6128 108.839 13.9215 108.268 14.5364C107.694 15.1512 107.41 16.0503 107.41 17.2286C107.41 18.4069 107.692 19.2838 108.256 19.9085C108.819 20.5332 109.525 20.8443 110.376 20.8443C111.226 20.8443 111.949 20.5332 112.55 19.9085Z" fill="#0A0A0A"/>
<path d="M139.003 6.22952V9.7938H134.162V24.4894H129.713V9.7938H124.872V6.22952H139.003Z" fill="#0A0A0A"/>
<path d="M154.852 18.2966H144.78C144.849 19.1981 145.141 19.8865 145.653 20.3642C146.165 20.8418 146.793 21.0795 147.54 21.0795C148.651 21.0795 149.423 20.6116 149.857 19.6758H154.592C154.35 20.6287 153.911 21.4886 153.278 22.2504C152.644 23.0147 151.852 23.6124 150.898 24.046C149.945 24.4796 148.876 24.6952 147.697 24.6952C146.276 24.6952 145.008 24.3914 143.898 23.7839C142.787 23.1764 141.92 22.3092 141.295 21.1823C140.67 20.0555 140.358 18.7376 140.358 17.2286C140.358 15.7196 140.667 14.4016 141.282 13.2748C141.898 12.1479 142.761 11.2808 143.871 10.6732C144.981 10.0657 146.256 9.76196 147.697 9.76196C149.138 9.76196 150.352 10.0559 151.445 10.6463C152.538 11.2367 153.394 12.0769 154.009 13.1695C154.624 14.262 154.933 15.5358 154.933 16.9934C154.933 17.4098 154.906 17.8434 154.855 18.2942L154.852 18.2966ZM150.376 15.8249C150.376 15.0631 150.116 14.4555 149.594 14.0048C149.075 13.5541 148.423 13.3287 147.643 13.3287C146.864 13.3287 146.268 13.5467 145.756 13.9779C145.244 14.4114 144.927 15.0263 144.805 15.8249H150.374H150.376Z" fill="#0A0A0A"/>
<path d="M157.313 13.2772C157.928 12.1504 158.789 11.2832 159.889 10.6757C160.99 10.0682 162.252 9.7644 163.676 9.7644C165.497 9.7644 167.02 10.2421 168.243 11.195C169.466 12.1479 170.267 13.4928 170.65 15.2272H165.914C165.515 14.1175 164.742 13.5614 163.598 13.5614C162.782 13.5614 162.132 13.8774 161.647 14.5119C161.161 15.1439 160.919 16.0503 160.919 17.2286C160.919 18.4069 161.161 19.3132 161.647 19.9477C162.132 20.5797 162.782 20.8957 163.598 20.8957C164.742 20.8957 165.515 20.3421 165.914 19.2324H170.65C170.267 20.9325 169.461 22.2675 168.23 23.2376C166.998 24.2101 165.48 24.6952 163.676 24.6952C162.255 24.6952 160.992 24.3914 159.889 23.7839C158.786 23.1764 157.928 22.3092 157.313 21.1823C156.698 20.0555 156.389 18.7376 156.389 17.2286C156.389 15.7196 156.698 14.4016 157.313 13.2748V13.2772Z" fill="#0A0A0A"/>
<path d="M185.952 11.4694C186.957 12.5717 187.462 14.0832 187.462 16.0086V24.4869H183.038V16.6063C183.038 15.6363 182.785 14.8818 182.283 14.3428C181.78 13.8063 181.104 13.5369 180.253 13.5369C179.403 13.5369 178.726 13.8063 178.224 14.3428C177.721 14.8818 177.469 15.6338 177.469 16.6063V24.4869H173.018V5.23984H177.469V11.925C177.92 11.2832 178.535 10.7712 179.317 10.3915C180.099 10.0094 180.974 9.81828 181.945 9.81828C183.609 9.81828 184.945 10.3695 185.952 11.4694Z" fill="#0A0A0A"/>
<path d="M190.727 24.0068C190.232 23.5487 189.985 22.9804 189.985 22.3043C189.985 21.6282 190.232 21.0304 190.727 20.5626C191.222 20.0947 191.86 19.8595 192.639 19.8595C193.419 19.8595 194.031 20.0947 194.527 20.5626C195.022 21.0304 195.269 21.611 195.269 22.3043C195.269 22.9975 195.022 23.5487 194.527 24.0068C194.031 24.4673 193.404 24.6952 192.639 24.6952C191.874 24.6952 191.22 24.4649 190.727 24.0068Z" fill="#0A0A0A"/>
<path d="M15.4399 16.9322L19.4819 19.2643L15.5086 21.5547L7.49571 26.1797C6.22846 26.9097 4.64746 25.996 4.64746 24.5384V6.04092C4.64746 4.58091 6.22846 3.66719 7.49571 4.39964L15.5086 9.02217L19.4819 11.3151L15.4399 13.6472C14.1751 14.3772 14.1751 16.2022 15.4399 16.9346V16.9322Z" fill="#0A0A0A"/>
<path d="M34.3164 6.04088V24.5384C34.3164 25.9959 32.7354 26.9121 31.4681 26.1797L23.4553 21.5547L19.4819 19.2642L23.5239 16.9321C24.7887 16.2021 24.7887 14.3771 23.5239 13.6447L19.4819 11.3126L23.4553 9.01969L31.4681 4.39715C32.7354 3.66715 34.3164 4.57843 34.3164 6.03843V6.04088Z" fill="#0A0A0A"/>
</svg>
