<?xml version="1.0" encoding="UTF-8"?>
<svg id="Layer_1" data-name="Layer 1" xmlns="http://www.w3.org/2000/svg" viewBox="0 0 815.94 122.3">
  <defs>
    <style>
      .cls-1 {
        fill: #fff;
        stroke-width: 0px;
      }
    </style>
  </defs>
  <path class="cls-1" d="m269.28,25.43v74.53h-18.15v-44.7l-16.67,44.7h-14.65l-16.78-44.8v44.8h-18.16V25.43h21.45l20.92,51.6,20.7-51.6h21.34Z"/>
  <path class="cls-1" d="m283.67,31.74c-2.02-1.87-3.03-4.19-3.03-6.95s1.01-5.18,3.03-7.06c2.02-1.87,4.62-2.81,7.8-2.81s5.68.94,7.7,2.81c2.02,1.88,3.03,4.23,3.03,7.06s-1.01,5.08-3.03,6.95c-2.02,1.88-4.58,2.81-7.7,2.81s-5.79-.94-7.8-2.81Zm16.83,8.97v59.24h-18.15v-59.24h18.15Z"/>
  <path class="cls-1" d="m313.82,54.2c2.51-4.6,6.02-8.14,10.51-10.62,4.49-2.48,9.64-3.72,15.45-3.72,7.43,0,13.64,1.95,18.63,5.84,4.99,3.89,8.26,9.38,9.82,16.46h-19.32c-1.63-4.53-4.78-6.8-9.45-6.8-3.33,0-5.98,1.29-7.96,3.88-1.98,2.58-2.97,6.28-2.97,11.09s.99,8.51,2.97,11.1c1.98,2.58,4.64,3.87,7.96,3.87,4.67,0,7.82-2.26,9.45-6.79h19.32c-1.56,6.94-4.85,12.39-9.87,16.35-5.03,3.97-11.22,5.95-18.58,5.95-5.8,0-10.95-1.24-15.45-3.72-4.5-2.48-8-6.02-10.51-10.62-2.51-4.6-3.77-9.98-3.77-16.14s1.26-11.54,3.77-16.14Z"/>
  <path class="cls-1" d="m404.01,42.89c3.19-1.87,6.72-2.81,10.62-2.81v19.22h-4.99c-4.53,0-7.93.97-10.19,2.92-2.27,1.95-3.4,5.36-3.4,10.25v27.5h-18.15v-59.24h18.15v9.87c2.12-3.25,4.78-5.82,7.96-7.7Z"/>
  <path class="cls-1" d="m434.64,97.09c-4.64-2.48-8.28-6.02-10.93-10.62-2.65-4.6-3.98-9.98-3.98-16.14s1.34-11.45,4.03-16.08c2.69-4.64,6.37-8.19,11.04-10.67,4.67-2.48,9.91-3.72,15.71-3.72s11.04,1.24,15.71,3.72c4.67,2.48,8.35,6.04,11.04,10.67,2.69,4.64,4.03,10,4.03,16.08s-1.36,11.45-4.09,16.09c-2.73,4.64-6.44,8.19-11.15,10.67-4.71,2.48-9.96,3.72-15.77,3.72s-11.02-1.24-15.66-3.72Zm24.53-15.82c2.44-2.55,3.66-6.19,3.66-10.94s-1.19-8.39-3.56-10.94c-2.37-2.55-5.29-3.82-8.76-3.82s-6.48,1.26-8.81,3.77c-2.34,2.51-3.5,6.18-3.5,10.99s1.15,8.39,3.45,10.94c2.3,2.55,5.18,3.82,8.65,3.82s6.42-1.27,8.87-3.82Z"/>
  <path class="cls-1" d="m567.09,25.43v14.55h-19.75v59.99h-18.15v-59.99h-19.75v-14.55h57.65Z"/>
  <path class="cls-1" d="m631.75,74.69h-41.09c.28,3.68,1.47,6.49,3.56,8.44,2.09,1.95,4.65,2.92,7.7,2.92,4.53,0,7.68-1.91,9.45-5.73h19.32c-.99,3.89-2.78,7.4-5.36,10.51-2.59,3.12-5.82,5.56-9.71,7.33-3.89,1.77-8.25,2.65-13.06,2.65-5.8,0-10.97-1.24-15.5-3.72-4.53-2.48-8.07-6.02-10.62-10.62-2.55-4.6-3.82-9.98-3.82-16.14s1.26-11.54,3.77-16.14c2.51-4.6,6.03-8.14,10.56-10.62,4.53-2.48,9.73-3.72,15.61-3.72s10.83,1.2,15.29,3.61c4.46,2.41,7.95,5.84,10.46,10.3,2.51,4.46,3.77,9.66,3.77,15.61,0,1.7-.11,3.47-.32,5.31Zm-18.26-10.09c0-3.11-1.06-5.59-3.19-7.43-2.12-1.84-4.78-2.76-7.96-2.76s-5.61.89-7.7,2.65c-2.09,1.77-3.38,4.28-3.88,7.54h22.72Z"/>
  <path class="cls-1" d="m641.79,54.2c2.51-4.6,6.02-8.14,10.51-10.62,4.49-2.48,9.64-3.72,15.45-3.72,7.43,0,13.64,1.95,18.63,5.84,4.99,3.89,8.26,9.38,9.82,16.46h-19.32c-1.63-4.53-4.78-6.8-9.45-6.8-3.33,0-5.98,1.29-7.96,3.88-1.98,2.58-2.97,6.28-2.97,11.09s.99,8.51,2.97,11.1c1.98,2.58,4.63,3.87,7.96,3.87,4.67,0,7.82-2.26,9.45-6.79h19.32c-1.56,6.94-4.85,12.39-9.87,16.35-5.03,3.97-11.22,5.95-18.58,5.95-5.8,0-10.95-1.24-15.45-3.72-4.5-2.48-8-6.02-10.51-10.62-2.51-4.6-3.77-9.98-3.77-16.14s1.26-11.54,3.77-16.14Z"/>
  <path class="cls-1" d="m758.63,46.82c4.1,4.5,6.16,10.67,6.16,18.53v34.61h-18.05v-32.17c0-3.96-1.03-7.04-3.08-9.24-2.05-2.19-4.81-3.29-8.28-3.29s-6.23,1.1-8.28,3.29c-2.05,2.2-3.08,5.27-3.08,9.24v32.17h-18.16V21.39h18.16v27.29c1.84-2.62,4.35-4.71,7.54-6.26,3.19-1.56,6.76-2.34,10.72-2.34,6.79,0,12.24,2.25,16.35,6.74Z"/>
  <path class="cls-1" d="m778.11,98c-2.02-1.87-3.03-4.19-3.03-6.95s1.01-5.2,3.03-7.11c2.02-1.91,4.62-2.87,7.8-2.87s5.68.96,7.7,2.87c2.02,1.91,3.03,4.28,3.03,7.11s-1.01,5.08-3.03,6.95c-2.02,1.88-4.58,2.81-7.7,2.81s-5.79-.94-7.8-2.81Z"/>
  <g>
    <path class="cls-1" d="m62.99,69.12l16.49,9.52-16.21,9.35-32.69,18.88c-5.17,2.98-11.62-.75-11.62-6.7V24.66c0-5.96,6.45-9.69,11.62-6.7l32.69,18.87,16.21,9.36-16.49,9.52c-5.16,2.98-5.16,10.43,0,13.42Z"/>
    <path class="cls-1" d="m140,24.66v75.51c0,5.95-6.45,9.69-11.62,6.7l-32.69-18.88-16.21-9.35,16.49-9.52c5.16-2.98,5.16-10.43,0-13.42l-16.49-9.52,16.21-9.36,32.69-18.87c5.17-2.98,11.62.74,11.62,6.7Z"/>
  </g>
</svg>