<svg width="81" height="100" viewBox="0 0 81 100" fill="none" xmlns="http://www.w3.org/2000/svg">
<path fill-rule="evenodd" clip-rule="evenodd" d="M60.2368 64.7585V94.4123C60.2368 95.9508 59.6086 97.3484 58.5969 98.3601C57.5852 99.3718 56.1878 100 54.6491 100H5.5877C4.04904 100 2.65163 99.3719 1.63978 98.3602C0.628075 97.3484 0 95.951 0 94.4123V5.5877C0 4.04904 0.628075 2.65163 1.63978 1.63977C2.65163 0.628074 4.04903 0 5.5877 0H54.6491C56.1878 0 57.5853 0.628074 58.597 1.63977C59.6087 2.65155 60.2368 4.04911 60.2368 5.5877V18.6349C60.2368 18.6735 60.2357 18.7119 60.2336 18.75H56.0732C56.0711 18.7119 56.07 18.6735 56.07 18.6349V15.402C56.07 15.0136 55.9095 14.6586 55.651 14.4001C55.3925 14.1417 55.0377 13.9811 54.6491 13.9811H5.58769C5.19914 13.9811 4.84428 14.1416 4.58576 14.4001C4.32724 14.6586 4.16676 15.0135 4.16676 15.402V80.3742C4.16676 80.7627 4.32724 81.1176 4.58576 81.3761C4.84428 81.6346 5.19914 81.7951 5.58769 81.7951H54.6491C55.0375 81.7951 55.3924 81.6346 55.6509 81.376C55.9095 81.1174 56.07 80.7626 56.07 80.3742V64.7584L60.2368 64.7585ZM30.1185 85.9356C32.026 85.9356 33.5725 87.482 33.5725 89.3895C33.5725 91.297 32.026 92.8436 30.1185 92.8436C28.211 92.8436 26.6645 91.297 26.6645 89.3895C26.6645 87.482 28.211 85.9356 30.1185 85.9356ZM25.1057 7.2918C24.2428 7.2918 23.5433 7.99138 23.5433 8.85429C23.5433 9.7172 24.2428 10.4168 25.1057 10.4168H35.1313C35.9942 10.4168 36.6937 9.7172 36.6937 8.85429C36.6937 7.99138 35.9942 7.2918 35.1313 7.2918H25.1057Z" fill="white"/>
<path fill-rule="evenodd" clip-rule="evenodd" d="M30.12 40.7084C30.3625 41.1947 30.6085 41.7614 30.8532 42.3251C31.4051 43.5963 31.9489 44.8488 32.3676 45.0259C32.7953 45.2068 34.1049 44.68 35.4111 44.1546C36.1799 43.8454 37.4253 43.083 38.1605 43.8077C38.6589 44.211 39.1146 44.6192 39.5257 45.0302C39.9621 45.4666 40.3953 45.9534 40.8231 46.4881C41.0843 46.8146 41.1395 47.2379 40.9982 47.6015C40.8345 48.0712 40.6184 48.6083 40.4023 49.1458C39.8769 50.452 39.3501 51.7616 39.531 52.1893C39.7081 52.608 40.9606 53.1519 42.2318 53.7038C42.9775 54.0274 44.4719 54.4114 44.5432 55.4015C44.6481 56.3167 45.1225 59.8816 43.8485 60.4118C43.3623 60.6541 42.7955 60.9003 42.2318 61.1449C40.9606 61.6968 39.7082 62.2407 39.531 62.6593C39.3502 63.087 39.877 64.3967 40.4024 65.7028C40.6251 66.2565 40.8476 66.8098 41.0129 67.2895C41.1576 67.7094 41.0413 68.156 40.7493 68.4522C40.0398 69.3289 38.0919 71.7322 36.9548 71.2896C36.4852 71.126 35.9483 70.91 35.4111 70.694C34.1049 70.1687 32.7953 69.6419 32.3677 69.8227C31.9489 69.9998 31.4051 71.2524 30.8532 72.5236C30.5295 73.2692 30.1456 74.7636 29.1555 74.8349C27.9268 74.9758 24.6457 75.343 24.1452 74.1403C23.9029 73.654 23.6568 73.0873 23.412 72.5235C22.8602 71.2524 22.3164 69.9998 21.8976 69.8227C21.47 69.6419 20.1603 70.1687 18.8542 70.694C18.3005 70.9168 17.7471 71.1393 17.2675 71.3046C16.8476 71.4493 16.401 71.333 16.1048 71.041C15.6064 70.6377 15.1507 70.2294 14.7396 69.8183C14.1651 69.2439 12.9011 68.1884 13.2671 67.2469C13.4308 66.7771 13.6469 66.2401 13.8631 65.7026C14.3884 64.3965 14.9151 63.087 14.7343 62.6594C14.5572 62.2407 13.3046 61.6968 12.0334 61.145C11.2878 60.8212 9.79334 60.4373 9.72205 59.4472C9.68637 59.1357 9.65792 58.807 9.63747 58.4608C9.61555 58.0905 9.60425 57.7444 9.60425 57.4243C9.60425 57.1044 9.61555 56.7584 9.63747 56.3882C9.65907 56.0225 9.6896 55.6763 9.7282 55.349C9.77788 54.9283 10.0515 54.5889 10.4166 54.437C10.9029 54.1946 11.4696 53.9485 12.0334 53.7037C13.3046 53.1519 14.5572 52.608 14.7343 52.1894C14.9151 51.7617 14.3883 50.4521 13.8629 49.1459C13.6402 48.5922 13.4176 48.0388 13.2523 47.5592C13.1077 47.1392 13.224 46.6927 13.5159 46.3965C13.9193 45.8981 14.3275 45.4423 14.7386 45.0312C15.313 44.4568 16.3686 43.1928 17.3101 43.5589C17.7799 43.7226 18.3169 43.9386 18.8543 44.1548C20.1604 44.6801 21.47 45.2068 21.8976 45.026C22.3163 44.8489 22.8602 43.5963 23.412 42.3251C24.0449 40.8672 24.0429 40.2551 25.2556 40.0235C26.3549 39.8136 29.6487 39.5759 30.12 40.7084ZM27.1327 48.62C29.5637 48.62 31.7648 49.6055 33.3581 51.1989C34.9515 52.7922 35.9369 54.9932 35.9369 57.4243C35.9369 59.8554 34.9514 62.0565 33.3581 63.6498C31.7648 65.2431 29.5637 66.2286 27.1327 66.2286C24.7016 66.2286 22.5005 65.2431 20.9071 63.6498C19.3138 62.0565 18.3283 59.8554 18.3283 57.4243C18.3283 54.9932 19.3138 52.7922 20.9071 51.1989C22.5005 49.6055 24.7016 48.62 27.1327 48.62ZM31.759 52.798C30.5751 51.6141 28.9394 50.8817 27.1327 50.8817C25.3259 50.8817 23.6902 51.6141 22.5062 52.798C21.3224 53.9818 20.5901 55.6175 20.5901 57.4243C20.5901 59.2311 21.3224 60.8668 22.5062 62.0507C23.6902 63.2346 25.3259 63.9669 27.1327 63.9669C28.9394 63.9669 30.5751 63.2346 31.759 62.0507C32.9429 60.8668 33.6752 59.2311 33.6752 57.4243C33.6752 55.6175 32.9429 53.9818 31.759 52.798ZM27.1327 53.17C28.3072 53.17 29.3709 53.6462 30.1409 54.4161C30.9107 55.1861 31.387 56.2497 31.387 57.4243C31.387 58.599 30.9107 59.6626 30.1409 60.4325C29.3709 61.2025 28.3072 61.6787 27.1327 61.6787C25.9579 61.6787 24.8944 61.2025 24.1244 60.4325C23.3545 59.6626 22.8782 58.599 22.8782 57.4243C22.8782 56.2498 23.3545 55.1861 24.1244 54.4161C24.8943 53.6462 25.9579 53.17 27.1327 53.17ZM28.5417 56.0152C28.1812 55.6547 27.6829 55.4317 27.1327 55.4317C26.5823 55.4317 26.0841 55.6547 25.7236 56.0152C25.363 56.3757 25.14 56.8741 25.14 57.4243C25.14 57.9747 25.363 58.4729 25.7236 58.8334C26.0841 59.1939 26.5823 59.417 27.1327 59.417C27.6829 59.417 28.1812 59.1939 28.5417 58.8334C28.9022 58.4729 29.1252 57.9747 29.1252 57.4243C29.1252 56.8741 28.9022 56.3757 28.5417 56.0152Z" fill="white"/>
<path fill-rule="evenodd" clip-rule="evenodd" d="M80.4375 31.9778V61.8461C80.4375 62.3043 79.9839 62.6758 79.4244 62.6758H41.5547C42.0045 62.4693 42.4637 62.2782 42.6823 62.1833C43.2318 61.9447 43.7736 61.6903 44.3185 61.4415C46.2912 60.5405 45.8336 57.0595 45.6693 55.2975C45.5695 54.2277 44.7552 53.5725 43.8458 53.1453C43.4614 52.9647 43.0679 52.8349 42.6823 52.6675C42.2997 52.5014 41.1796 52.0405 40.6639 51.7183C40.8046 51.1152 41.2927 49.9638 41.4515 49.5688C41.6615 49.0468 41.8649 48.5215 42.0595 47.9934C42.3347 47.2462 42.211 46.4048 41.7107 45.7793L41.0042 44.8961L40.9756 44.919C40.765 44.6841 40.5484 44.4547 40.3254 44.2317C39.8781 43.7844 39.3854 43.3866 38.9141 42.9655C38.0804 42.2205 37.0301 42.2981 36.0476 42.6596C35.6844 42.7931 35.3456 42.9632 34.9892 43.1066C34.5943 43.2654 33.4429 43.7535 32.8398 43.8942C32.5175 43.3785 32.0567 42.2585 31.8906 41.8759C31.6521 41.3264 31.3976 40.7845 31.1488 40.2397C30.5662 38.9639 28.8148 38.7525 27.5809 38.7258C26.7694 38.7083 25.8429 38.7611 25.0436 38.9137C23.1992 39.2659 23.0216 40.386 22.3749 41.8758C22.2088 42.2585 21.7479 43.3785 21.4257 43.8943C20.8227 43.7535 19.6714 43.2655 19.2765 43.1066C18.7544 42.8967 18.2292 42.6933 17.7012 42.4988C16.897 42.2024 16.1273 42.4366 15.4583 42.8699V31.9777L80.4375 31.9778ZM65.231 23.8214V27.8737H69.2833V23.8214H65.231ZM58.145 27.8737H62.1973V23.8214H58.145V27.8737ZM72.3376 23.8214V27.8737H76.3898V23.8214H72.3376ZM16.4713 20.834H79.4243C79.9838 20.834 80.4374 21.2876 80.4374 21.8471V30.9646H15.4583V21.8471C15.4583 21.2876 15.9118 20.834 16.4713 20.834Z" fill="white"/>
</svg>
