<svg width="81" height="100" viewBox="0 0 81 100" fill="none" xmlns="http://www.w3.org/2000/svg">
<path fill-rule="evenodd" clip-rule="evenodd" d="M60.2368 64.7585V94.4123C60.2368 95.9508 59.6086 97.3484 58.5969 98.3601C57.5852 99.3718 56.1878 100 54.6491 100H5.5877C4.04904 100 2.65163 99.3719 1.63978 98.3602C0.628075 97.3484 0 95.951 0 94.4123V5.5877C0 4.04904 0.628075 2.65163 1.63978 1.63977C2.65163 0.628074 4.04903 0 5.5877 0H54.6491C56.1878 0 57.5853 0.628074 58.597 1.63977C59.6087 2.65155 60.2368 4.04911 60.2368 5.5877V18.6349C60.2368 18.6735 60.2357 18.7119 60.2336 18.75H56.0732C56.0711 18.7119 56.07 18.6735 56.07 18.6349V15.402C56.07 15.0136 55.9095 14.6586 55.651 14.4001C55.3925 14.1417 55.0377 13.9811 54.6491 13.9811H5.58769C5.19914 13.9811 4.84428 14.1416 4.58576 14.4001C4.32724 14.6586 4.16676 15.0135 4.16676 15.402V80.3742C4.16676 80.7627 4.32724 81.1176 4.58576 81.3761C4.84428 81.6346 5.19914 81.7951 5.58769 81.7951H54.6491C55.0375 81.7951 55.3924 81.6346 55.6509 81.376C55.9095 81.1174 56.07 80.7626 56.07 80.3742V64.7584L60.2368 64.7585ZM30.1185 85.9356C32.026 85.9356 33.5725 87.482 33.5725 89.3895C33.5725 91.297 32.026 92.8436 30.1185 92.8436C28.211 92.8436 26.6645 91.297 26.6645 89.3895C26.6645 87.482 28.211 85.9356 30.1185 85.9356ZM25.1057 7.2918C24.2428 7.2918 23.5433 7.99138 23.5433 8.85429C23.5433 9.7172 24.2428 10.4168 25.1057 10.4168H35.1313C35.9942 10.4168 36.6937 9.7172 36.6937 8.85429C36.6937 7.99138 35.9942 7.2918 35.1313 7.2918H25.1057Z" fill="#0A0A0A"/>
<path fill-rule="evenodd" clip-rule="evenodd" d="M30.12 40.7089C30.3625 41.1951 30.6085 41.7619 30.8532 42.3256C31.4051 43.5968 31.9489 44.8493 32.3676 45.0264C32.7953 45.2073 34.1049 44.6805 35.4111 44.1551C36.1799 43.8458 37.4253 43.0835 38.1605 43.8082C38.6589 44.2115 39.1146 44.6197 39.5257 45.0307C39.9621 45.4671 40.3953 45.9539 40.8231 46.4885C41.0843 46.815 41.1395 47.2384 40.9982 47.602C40.8345 48.0717 40.6184 48.6088 40.4023 49.1463C39.8769 50.4525 39.3501 51.7621 39.531 52.1897C39.7081 52.6085 40.9606 53.1524 42.2318 53.7043C42.9775 54.0279 44.4719 54.4119 44.5432 55.4019C44.6481 56.3171 45.1225 59.882 43.8485 60.4122C43.3623 60.6546 42.7955 60.9008 42.2318 61.1454C40.9606 61.6973 39.7082 62.2412 39.531 62.6598C39.3502 63.0875 39.877 64.3971 40.4024 65.7033C40.6251 66.257 40.8476 66.8103 41.0129 67.29C41.1576 67.7099 41.0413 68.1564 40.7493 68.4526C40.0398 69.3294 38.0919 71.7327 36.9548 71.2901C36.4852 71.1265 35.9483 70.9105 35.4111 70.6945C34.1049 70.1692 32.7953 69.6424 32.3677 69.8232C31.9489 70.0003 31.4051 71.2528 30.8532 72.5241C30.5295 73.2697 30.1456 74.7641 29.1555 74.8354C27.9268 74.9763 24.6457 75.3435 24.1452 74.1408C23.9029 73.6545 23.6568 73.0878 23.412 72.524C22.8602 71.2528 22.3164 70.0003 21.8976 69.8232C21.47 69.6424 20.1603 70.1692 18.8542 70.6945C18.3005 70.9173 17.7471 71.1398 17.2675 71.3051C16.8476 71.4498 16.401 71.3335 16.1048 71.0415C15.6064 70.6381 15.1507 70.2299 14.7396 69.8188C14.1651 69.2444 12.9011 68.1889 13.2671 67.2474C13.4308 66.7776 13.6469 66.2405 13.8631 65.7031C14.3884 64.397 14.9151 63.0875 14.7343 62.6599C14.5572 62.2412 13.3046 61.6973 12.0334 61.1454C11.2878 60.8217 9.79334 60.4378 9.72205 59.4477C9.68637 59.1362 9.65792 58.8075 9.63747 58.4613C9.61555 58.091 9.60425 57.7449 9.60425 57.4248C9.60425 57.1049 9.61555 56.7588 9.63747 56.3887C9.65907 56.023 9.6896 55.6768 9.7282 55.3495C9.77788 54.9288 10.0515 54.5894 10.4166 54.4375C10.9029 54.1951 11.4696 53.949 12.0334 53.7042C13.3046 53.1524 14.5572 52.6085 14.7343 52.1898C14.9151 51.7622 14.3883 50.4526 13.8629 49.1464C13.6402 48.5926 13.4176 48.0393 13.2523 47.5596C13.1077 47.1397 13.224 46.6932 13.5159 46.397C13.9193 45.8986 14.3275 45.4428 14.7386 45.0317C15.313 44.4573 16.3686 43.1933 17.3101 43.5594C17.7799 43.7231 18.3169 43.9391 18.8543 44.1553C20.1604 44.6806 21.47 45.2073 21.8976 45.0265C22.3163 44.8494 22.8602 43.5968 23.412 42.3256C24.0449 40.8677 24.0429 40.2556 25.2556 40.024C26.3549 39.8141 29.6487 39.5764 30.12 40.7089ZM27.1327 48.6205C29.5637 48.6205 31.7648 49.606 33.3581 51.1993C34.9515 52.7927 35.9369 54.9937 35.9369 57.4248C35.9369 59.8559 34.9514 62.057 33.3581 63.6503C31.7648 65.2436 29.5637 66.2291 27.1327 66.2291C24.7016 66.2291 22.5005 65.2436 20.9071 63.6503C19.3138 62.057 18.3283 59.8559 18.3283 57.4248C18.3283 54.9937 19.3138 52.7927 20.9071 51.1993C22.5005 49.606 24.7016 48.6205 27.1327 48.6205ZM31.759 52.7984C30.5751 51.6146 28.9394 50.8822 27.1327 50.8822C25.3259 50.8822 23.6902 51.6146 22.5062 52.7984C21.3224 53.9823 20.5901 55.618 20.5901 57.4248C20.5901 59.2316 21.3224 60.8673 22.5062 62.0512C23.6902 63.2351 25.3259 63.9674 27.1327 63.9674C28.9394 63.9674 30.5751 63.2351 31.759 62.0512C32.9429 60.8673 33.6752 59.2316 33.6752 57.4248C33.6752 55.618 32.9429 53.9823 31.759 52.7984ZM27.1327 53.1705C28.3072 53.1705 29.3709 53.6467 30.1409 54.4166C30.9107 55.1866 31.387 56.2502 31.387 57.4248C31.387 58.5995 30.9107 59.6631 30.1409 60.433C29.3709 61.2029 28.3072 61.6792 27.1327 61.6792C25.9579 61.6792 24.8944 61.2029 24.1244 60.433C23.3545 59.6631 22.8782 58.5995 22.8782 57.4248C22.8782 56.2502 23.3545 55.1866 24.1244 54.4166C24.8943 53.6467 25.9579 53.1705 27.1327 53.1705ZM28.5417 56.0157C28.1812 55.6552 27.6829 55.4322 27.1327 55.4322C26.5823 55.4322 26.0841 55.6552 25.7236 56.0157C25.363 56.3762 25.14 56.8745 25.14 57.4248C25.14 57.9752 25.363 58.4734 25.7236 58.8339C26.0841 59.1944 26.5823 59.4174 27.1327 59.4174C27.6829 59.4174 28.1812 59.1944 28.5417 58.8339C28.9022 58.4734 29.1252 57.9752 29.1252 57.4248C29.1252 56.8745 28.9022 56.3762 28.5417 56.0157Z" fill="#0A0A0A"/>
<path fill-rule="evenodd" clip-rule="evenodd" d="M80.4375 31.9773V61.8456C80.4375 62.3038 79.9839 62.6753 79.4244 62.6753H41.5547C42.0045 62.4688 42.4637 62.2777 42.6823 62.1828C43.2318 61.9442 43.7736 61.6898 44.3185 61.441C46.2912 60.5401 45.8336 57.059 45.6693 55.297C45.5695 54.2272 44.7552 53.572 43.8458 53.1448C43.4614 52.9642 43.0679 52.8345 42.6823 52.6671C42.2997 52.5009 41.1796 52.0401 40.6639 51.7178C40.8046 51.1147 41.2927 49.9633 41.4515 49.5684C41.6615 49.0463 41.8649 48.521 42.0595 47.9929C42.3347 47.2457 42.211 46.4043 41.7107 45.7788L41.0042 44.8956L40.9756 44.9185C40.765 44.6836 40.5484 44.4542 40.3254 44.2312C39.8781 43.7839 39.3854 43.3861 38.9141 42.965C38.0804 42.22 37.0301 42.2976 36.0476 42.6591C35.6844 42.7927 35.3456 42.9627 34.9892 43.1061C34.5943 43.2649 33.4429 43.753 32.8398 43.8937C32.5175 43.378 32.0567 42.258 31.8906 41.8754C31.6521 41.3259 31.3976 40.784 31.1488 40.2392C30.5662 38.9634 28.8148 38.752 27.5809 38.7253C26.7694 38.7078 25.8429 38.7606 25.0436 38.9132C23.1992 39.2654 23.0216 40.3855 22.3749 41.8754C22.2088 42.258 21.7479 43.378 21.4257 43.8938C20.8227 43.7531 19.6714 43.265 19.2765 43.1061C18.7544 42.8962 18.2292 42.6928 17.7012 42.4983C16.897 42.2019 16.1273 42.4361 15.4583 42.8695V31.9772L80.4375 31.9773ZM65.231 23.8209V27.8732H69.2833V23.8209H65.231ZM58.145 27.8732H62.1973V23.8209H58.145V27.8732ZM72.3376 23.8209V27.8732H76.3898V23.8209H72.3376ZM16.4713 20.8335H79.4243C79.9838 20.8335 80.4374 21.2871 80.4374 21.8466V30.9641H15.4583V21.8466C15.4583 21.2871 15.9118 20.8335 16.4713 20.8335Z" fill="#0A0A0A"/>
</svg>
