<svg width="100" height="100" viewBox="0 0 100 100" fill="none" xmlns="http://www.w3.org/2000/svg">
<path fill-rule="evenodd" clip-rule="evenodd" d="M85.2678 59.5106C85.2719 56.3096 85.2797 52.4231 85.2907 46.6965L85.2955 44.2456L73.3706 44.2012L72.2301 44.2074L73.7647 49.5788C74.7647 53.0788 73.466 55.6347 71.1331 57.2359C69.3982 58.4267 67.0746 59.0219 64.778 59.0219C62.4814 59.0219 60.1578 58.4266 58.4229 57.2358C56.0898 55.6347 54.7913 53.0787 55.7912 49.5789L57.3259 44.2074H56.1853L44.2634 44.2456V57.095L49.5082 55.5966C53.0082 54.5966 55.564 55.8952 57.1652 58.2281C58.356 59.9631 58.9513 62.2868 58.9513 64.5833C58.9513 66.8799 58.356 69.2035 57.1652 70.9384C55.5639 73.2715 53.0081 74.5701 49.5082 73.5701L44.2634 72.0715V85.2368L59.3139 85.1807C59.5084 85.1623 59.7096 85.179 59.9087 85.2359C60.765 85.4805 61.2608 86.3732 61.0162 87.2295L58.8904 94.6646C58.3448 96.5744 59.0157 97.9432 60.237 98.7814C61.4211 99.5941 63.0861 100.001 64.7779 100.001C66.4697 100.001 68.1347 99.5941 69.3189 98.7814C70.5401 97.9431 71.2111 96.5743 70.6654 94.6646L68.5622 87.3031C68.5068 87.139 68.4769 86.9633 68.4776 86.7804C68.4808 85.8899 69.2056 85.1706 70.0962 85.1738L85.2956 85.2368L85.2883 81.447C85.2791 76.651 85.2724 73.213 85.2684 70.3427C85.2507 70.1496 85.2677 69.9501 85.3241 69.7525C85.5687 68.8962 86.4613 68.4004 87.3177 68.645L94.6504 70.7414C96.5602 71.2871 97.929 70.6162 98.7672 69.3949C99.5799 68.2107 99.9864 66.5457 99.9864 64.8539C99.9864 63.1678 99.584 61.5034 98.7671 60.3131C97.929 59.0918 96.5601 58.4209 94.6504 58.9666L87.3923 61.0403C87.229 61.0956 87.0541 61.1256 86.8721 61.1253C85.9815 61.1242 85.2667 60.4013 85.2678 59.5106Z" fill="white"/>
<path fill-rule="evenodd" clip-rule="evenodd" d="M41.0044 69.9235C41.0085 73.1245 41.0162 77.0111 41.0273 82.7376L41.0321 85.1885L29.1072 85.233L27.9667 85.2267L29.5013 79.8553C30.5012 76.3553 29.2026 73.7994 26.8696 72.1982C25.1348 71.0075 22.8112 70.4122 20.5146 70.4122C18.218 70.4122 15.8944 71.0076 14.1594 72.1983C11.8264 73.7995 10.5279 76.3554 11.5278 79.8553L13.0625 85.2267H11.9219L0 85.1885V72.3391L5.24482 73.8375C8.74478 74.8375 11.3006 73.539 12.9018 71.206C14.0925 69.4711 14.6879 67.1474 14.6879 64.8509C14.6879 62.5543 14.0925 60.2306 12.9018 58.4957C11.3005 56.1626 8.74463 54.8641 5.24482 55.8641L0 57.3627V44.1974L15.0505 44.2535C15.245 44.2719 15.4461 44.2552 15.6453 44.1983C16.5016 43.9536 16.9974 43.061 16.7528 42.2047L14.627 34.7695C14.0814 32.8597 14.7523 31.4909 15.9736 30.6528C17.1577 29.84 18.8227 29.4336 20.5145 29.4336C22.2063 29.4336 23.8713 29.84 25.0554 30.6528C26.2767 31.491 26.9477 32.8598 26.402 34.7695L24.2988 42.131C24.2433 42.2951 24.2134 42.4709 24.2141 42.6537C24.2174 43.5443 24.9422 44.2636 25.8327 44.2603L41.0321 44.1974L41.0248 47.9871C41.0157 52.7831 41.0089 56.2211 41.005 59.0914C40.9872 59.2845 41.0042 59.484 41.0607 59.6816C41.3052 60.5379 42.1979 61.0337 43.0543 60.7892L50.3869 58.6927C52.2967 58.147 53.6656 58.8179 54.5038 60.0393C55.3165 61.2234 55.7229 62.8884 55.7229 64.5802C55.7229 66.2663 55.3206 67.9308 54.5037 69.1211C53.6655 70.3423 52.2966 71.0132 50.3869 70.4676L43.1289 68.3939C42.9656 68.3385 42.7907 68.3085 42.6087 68.3088C41.7181 68.3099 41.0032 69.0329 41.0044 69.9235Z" fill="white"/>
<path fill-rule="evenodd" clip-rule="evenodd" d="M44.2913 15.3094C44.2872 12.1084 44.2794 8.22188 44.2683 2.49535L44.2636 0.0444404L56.1885 0L57.329 0.00622757L55.7943 5.37767C54.7944 8.87764 56.093 11.4336 58.426 13.0347C60.1609 14.2255 62.4845 14.8207 64.7811 14.8207C67.0777 14.8207 69.4013 14.2254 71.1362 13.0347C73.4693 11.4335 74.7678 8.87756 73.7679 5.37768L72.2332 0.00622989H73.3738L85.2957 0.0444415V12.8938L80.0508 11.3954C76.5509 10.3955 73.9951 11.694 72.3938 14.027C71.2031 15.7619 70.6078 18.0856 70.6078 20.3821C70.6078 22.6787 71.2031 25.0024 72.3938 26.7372C73.9952 29.0704 76.551 30.3689 80.0508 29.3689L85.2957 27.8703V41.0356L70.2452 40.9795C70.0507 40.9611 69.8495 40.9778 69.6504 41.0347C68.7941 41.2793 68.2983 42.172 68.5428 43.0283L70.6687 50.4634C71.2143 52.3732 70.5434 53.7421 69.3221 54.5802C68.138 55.393 66.473 55.7994 64.7812 55.7994C63.0894 55.7994 61.4244 55.393 60.2402 54.5802C59.019 53.742 58.348 52.3731 58.8936 50.4634L60.9969 43.1019C61.0523 42.9379 61.0822 42.7621 61.0815 42.5793C61.0783 41.6887 60.3535 40.9694 59.4629 40.9726L44.2635 41.0356L44.2708 37.2459C44.28 32.4498 44.2867 29.0119 44.2907 26.1415C44.3084 25.9485 44.2914 25.7489 44.235 25.5513C43.9904 24.6951 43.0978 24.1992 42.2414 24.4438L34.9087 26.5403C32.9989 27.0859 31.63 26.415 30.7919 25.1937C29.9791 24.0095 29.5727 22.3446 29.5727 20.6528C29.5727 18.9666 29.9751 17.3022 30.792 16.1119C31.6301 14.8906 32.999 14.2197 34.9087 14.7654L42.1667 16.8391C42.33 16.8945 42.505 16.9244 42.687 16.9241C43.5775 16.9231 44.2924 16.2001 44.2913 15.3094Z" fill="white"/>
</svg>
