<svg width="100" height="100" viewBox="0 0 100 100" fill="none" xmlns="http://www.w3.org/2000/svg">
<path fill-rule="evenodd" clip-rule="evenodd" d="M85.2678 59.5101C85.2719 56.3091 85.2797 52.4226 85.2907 46.696L85.2955 44.2451L73.3706 44.2007L72.2301 44.2069L73.7647 49.5784C74.7647 53.0783 73.466 55.6342 71.1331 57.2354C69.3982 58.4262 67.0746 59.0214 64.778 59.0214C62.4814 59.0214 60.1578 58.4261 58.4229 57.2353C56.0898 55.6342 54.7913 53.0782 55.7912 49.5784L57.3259 44.2069H56.1853L44.2634 44.2451V57.0945L49.5082 55.5961C53.0082 54.5961 55.564 55.8947 57.1652 58.2277C58.356 59.9626 58.9513 62.2863 58.9513 64.5828C58.9513 66.8794 58.356 69.2031 57.1652 70.9379C55.5639 73.271 53.0081 74.5696 49.5082 73.5696L44.2634 72.071V85.2363L59.3139 85.1802C59.5084 85.1618 59.7096 85.1785 59.9087 85.2354C60.765 85.48 61.2608 86.3727 61.0162 87.229L58.8904 94.6641C58.3448 96.5739 59.0157 97.9427 60.237 98.7809C61.4211 99.5936 63.0861 100 64.7779 100C66.4697 100 68.1347 99.5936 69.3189 98.7809C70.5401 97.9427 71.2111 96.5738 70.6654 94.6641L68.5622 87.3026C68.5068 87.1385 68.4769 86.9628 68.4776 86.7799C68.4808 85.8894 69.2056 85.1701 70.0962 85.1733L85.2956 85.2363L85.2883 81.4466C85.2791 76.6505 85.2724 73.2125 85.2684 70.3422C85.2507 70.1492 85.2677 69.9496 85.3241 69.752C85.5687 68.8958 86.4613 68.3999 87.3177 68.6445L94.6504 70.741C96.5602 71.2866 97.929 70.6157 98.7672 69.3944C99.5799 68.2102 99.9864 66.5452 99.9864 64.8534C99.9864 63.1673 99.584 61.5029 98.7671 60.3126C97.929 59.0913 96.5601 58.4204 94.6504 58.9661L87.3923 61.0398C87.229 61.0951 87.0541 61.1251 86.8721 61.1248C85.9815 61.1237 85.2667 60.4008 85.2678 59.5101Z" fill="#0A0A0A"/>
<path fill-rule="evenodd" clip-rule="evenodd" d="M41.0044 69.923C41.0085 73.1241 41.0162 77.0106 41.0273 82.7371L41.0321 85.188L29.1072 85.2325L27.9667 85.2262L29.5013 79.8548C30.5012 76.3548 29.2026 73.7989 26.8696 72.1977C25.1348 71.007 22.8112 70.4117 20.5146 70.4117C18.218 70.4117 15.8944 71.0071 14.1594 72.1978C11.8264 73.799 10.5279 76.3549 11.5278 79.8548L13.0625 85.2262H11.9219L0 85.188V72.3387L5.24482 73.837C8.74478 74.837 11.3006 73.5385 12.9018 71.2055C14.0925 69.4706 14.6879 67.1469 14.6879 64.8504C14.6879 62.5538 14.0925 60.2301 12.9018 58.4952C11.3005 56.1621 8.74463 54.8636 5.24482 55.8636L0 57.3622V44.1969L15.0505 44.253C15.245 44.2714 15.4461 44.2547 15.6453 44.1978C16.5016 43.9531 16.9974 43.0605 16.7528 42.2042L14.627 34.769C14.0814 32.8592 14.7523 31.4904 15.9736 30.6523C17.1577 29.8395 18.8227 29.4331 20.5145 29.4331C22.2063 29.4331 23.8713 29.8395 25.0554 30.6523C26.2767 31.4905 26.9477 32.8593 26.402 34.769L24.2988 42.1305C24.2433 42.2946 24.2134 42.4704 24.2141 42.6532C24.2174 43.5438 24.9422 44.2631 25.8327 44.2598L41.0321 44.1969L41.0248 47.9866C41.0157 52.7826 41.0089 56.2206 41.005 59.0909C40.9872 59.284 41.0042 59.4835 41.0607 59.6811C41.3052 60.5374 42.1979 61.0333 43.0543 60.7887L50.3869 58.6922C52.2967 58.1465 53.6656 58.8175 54.5038 60.0388C55.3165 61.2229 55.7229 62.8879 55.7229 64.5797C55.7229 66.2658 55.3206 67.9303 54.5037 69.1206C53.6655 70.3418 52.2966 71.0128 50.3869 70.4671L43.1289 68.3934C42.9656 68.338 42.7907 68.308 42.6087 68.3083C41.7181 68.3094 41.0032 69.0324 41.0044 69.923Z" fill="#0A0A0A"/>
<path fill-rule="evenodd" clip-rule="evenodd" d="M44.2913 15.3094C44.2872 12.1084 44.2794 8.22188 44.2683 2.49535L44.2636 0.0444404L56.1885 0L57.329 0.00622757L55.7943 5.37767C54.7944 8.87764 56.093 11.4336 58.426 13.0347C60.1609 14.2255 62.4845 14.8207 64.7811 14.8207C67.0777 14.8207 69.4013 14.2254 71.1362 13.0347C73.4693 11.4335 74.7678 8.87756 73.7679 5.37768L72.2332 0.00622989H73.3738L85.2957 0.0444415V12.8938L80.0508 11.3954C76.5509 10.3955 73.9951 11.694 72.3938 14.027C71.2031 15.7619 70.6078 18.0856 70.6078 20.3821C70.6078 22.6787 71.2031 25.0024 72.3938 26.7372C73.9952 29.0704 76.551 30.3689 80.0508 29.3689L85.2957 27.8703V41.0356L70.2452 40.9795C70.0507 40.9611 69.8495 40.9778 69.6504 41.0347C68.7941 41.2793 68.2983 42.172 68.5428 43.0283L70.6687 50.4634C71.2143 52.3732 70.5434 53.7421 69.3221 54.5802C68.138 55.393 66.473 55.7994 64.7812 55.7994C63.0894 55.7994 61.4244 55.393 60.2402 54.5802C59.019 53.742 58.348 52.3731 58.8936 50.4634L60.9969 43.1019C61.0523 42.9379 61.0822 42.7621 61.0815 42.5793C61.0783 41.6887 60.3535 40.9694 59.4629 40.9726L44.2635 41.0356L44.2708 37.2459C44.28 32.4498 44.2867 29.0119 44.2907 26.1415C44.3084 25.9485 44.2914 25.7489 44.235 25.5513C43.9904 24.6951 43.0978 24.1992 42.2414 24.4438L34.9087 26.5403C32.9989 27.0859 31.63 26.415 30.7919 25.1937C29.9791 24.0095 29.5727 22.3446 29.5727 20.6528C29.5727 18.9666 29.9751 17.3022 30.792 16.1119C31.6301 14.8906 32.999 14.2197 34.9087 14.7654L42.1667 16.8391C42.33 16.8945 42.505 16.9244 42.687 16.9241C43.5775 16.9231 44.2924 16.2001 44.2913 15.3094Z" fill="#0A0A0A"/>
</svg>
