<svg width="101" height="100" viewBox="0 0 101 100" fill="none" xmlns="http://www.w3.org/2000/svg">
<path fill-rule="evenodd" clip-rule="evenodd" d="M37.8754 36.6926C38.3229 37.5903 38.7772 38.6367 39.229 39.6773C40.2478 42.0242 41.2518 44.3365 42.0248 44.6635C42.8143 44.9973 45.2322 44.0248 47.6437 43.0549C49.0629 42.4839 51.3622 41.0766 52.7194 42.4143C53.6395 43.1589 54.4808 43.9125 55.2397 44.6714C56.0454 45.477 56.8452 46.3757 57.6349 47.3628C58.1171 47.9655 58.219 48.7471 57.9582 49.4183C57.656 50.2855 57.2572 51.2771 56.8581 52.2693C55.8882 54.6807 54.9156 57.0986 55.2495 57.8881C55.5765 58.6611 57.8889 59.6652 60.2358 60.6841C61.6123 61.2816 64.3712 61.9905 64.5028 63.8183C64.6965 65.5079 65.5725 72.0892 63.2204 73.0681C62.3227 73.5156 61.2763 73.9699 60.2358 74.4216C57.8889 75.4405 55.5765 76.4445 55.2496 77.2175C54.9157 78.007 55.8882 80.4248 56.8582 82.8362C57.2693 83.8584 57.6802 84.88 57.9854 85.7655C58.2524 86.5408 58.0378 87.3651 57.4987 87.9119C56.1888 89.5306 52.5927 93.9675 50.4934 93.1504C49.6265 92.8483 48.6354 92.4496 47.6436 92.0507C45.2322 91.0809 42.8143 90.1083 42.0249 90.4422C41.2518 90.7692 40.2478 93.0815 39.229 95.4284C38.6314 96.805 37.9225 99.5639 36.0947 99.6955C33.8264 99.9556 27.7689 100.633 26.845 98.4132C26.3975 97.5154 25.9432 96.4692 25.4913 95.4283C24.4726 93.0815 23.4686 90.7692 22.6955 90.4422C21.9061 90.1083 19.4882 91.0809 17.0769 92.0508C16.0546 92.462 15.0331 92.8729 14.1475 93.1781C13.3722 93.4451 12.5479 93.2304 12.0011 92.6914C11.0809 91.9468 10.2395 91.1931 9.48058 90.4342C8.42011 89.3737 6.0865 87.425 6.76229 85.6868C7.06451 84.8195 7.46336 83.8281 7.86244 82.8359C8.83229 80.4247 9.80468 78.007 9.47087 77.2176C9.14391 76.4445 6.83149 75.4405 4.48461 74.4216C3.10805 73.824 0.34916 73.1152 0.217534 71.2874C0.151573 70.7122 0.099097 70.1055 0.0612617 69.4663C0.0208834 68.7827 0 68.1437 0 67.5529C0 66.9622 0.0208834 66.3234 0.0612617 65.64C0.101255 64.9647 0.157507 64.3257 0.228785 63.7215C0.320484 62.9448 0.825751 62.3182 1.49985 62.0377C2.39758 61.5902 3.44387 61.1359 4.48469 60.684C6.83149 59.6652 9.1439 58.6612 9.47079 57.8882C9.80468 57.0987 8.83213 54.6809 7.86221 52.2695C7.45103 51.2473 7.04008 50.2256 6.73493 49.3402C6.46792 48.5649 6.6826 47.7406 7.22162 47.1937C7.96623 46.2736 8.71994 45.4322 9.4788 44.6732C10.5393 43.6128 12.488 41.2792 14.2262 41.9549C15.0935 42.2572 16.085 42.656 17.0772 43.0551C19.4884 44.025 21.9061 44.9973 22.6954 44.6635C23.4685 44.3366 24.4725 42.0242 25.4914 39.6773C26.6597 36.9856 26.656 35.8557 28.8948 35.4281C30.9243 35.0407 37.0053 34.6018 37.8754 36.6926ZM32.3602 51.2987C36.8483 51.2987 40.9119 53.1181 43.8534 56.0596C46.795 59.0011 48.6144 63.0647 48.6144 67.5528C48.6144 72.041 46.795 76.1046 43.8534 79.0461C40.9119 81.9876 36.8483 83.807 32.3602 83.807C27.872 83.807 23.8085 81.9876 20.8669 79.0461C17.9254 76.1046 16.106 72.041 16.106 67.5528C16.106 63.0647 17.9254 59.0011 20.8669 56.0596C23.8085 53.1181 27.872 51.2987 32.3602 51.2987ZM40.9012 59.0118C38.7155 56.8262 35.6958 55.4743 32.3602 55.4743C29.0246 55.4743 26.0048 56.8262 23.8192 59.0118C21.6335 61.1975 20.2816 64.2173 20.2816 67.5528C20.2816 70.8884 21.6335 73.9082 23.8192 76.0939C26.0048 78.2795 29.0246 79.6314 32.3602 79.6314C35.6958 79.6314 38.7155 78.2795 40.9012 76.0939C43.0868 73.9082 44.4388 70.8884 44.4388 67.5528C44.4388 64.2173 43.0869 61.1975 40.9012 59.0118ZM32.3602 59.6986C34.5287 59.6986 36.4924 60.5778 37.9138 61.9992C39.3352 63.4206 40.2144 65.3844 40.2144 67.5528C40.2144 69.7215 39.3352 71.6851 37.9138 73.1065C36.4924 74.5279 34.5287 75.4071 32.3602 75.4071C30.1916 75.4071 28.228 74.5279 26.8066 73.1065C25.3851 71.6851 24.5059 69.7215 24.5059 67.5528C24.5059 65.3844 25.3852 63.4206 26.8066 61.9992C28.228 60.5778 30.1916 59.6986 32.3602 59.6986ZM34.9616 64.9515C34.296 64.2859 33.3761 63.8742 32.3602 63.8742C31.3441 63.8742 30.4243 64.2859 29.7588 64.9515C29.0933 65.617 28.6815 66.5369 28.6815 67.5528C28.6815 68.5689 29.0933 69.4887 29.7588 70.1542C30.4243 70.8198 31.3441 71.2315 32.3602 71.2315C33.3761 71.2315 34.296 70.8198 34.9616 70.1542C35.6271 69.4887 36.0388 68.5689 36.0388 67.5528C36.0388 66.5369 35.6271 65.617 34.9616 64.9515Z" fill="white"/>
<path fill-rule="evenodd" clip-rule="evenodd" d="M100.581 20.5723V75.7142C100.581 76.5601 99.7432 77.2459 98.7103 77.2459H58.9856C59.8159 76.8647 60.6637 76.5119 61.0672 76.3367C62.0817 75.8963 63.082 75.4266 64.0878 74.9672C67.7299 73.304 66.8851 66.8774 66.5816 63.6244C66.3974 61.6493 64.8941 60.4398 63.2152 59.6511C62.5057 59.3177 61.7792 59.0782 61.0672 58.7691C60.3608 58.4624 58.2931 57.6116 57.3409 57.0166C57.6007 55.9033 58.5018 53.7775 58.7951 53.0484C59.1828 52.0846 59.5583 51.1148 59.9174 50.14C60.4256 48.7604 60.1972 47.2071 59.2734 46.0522L57.9692 44.4219L57.9164 44.4641C57.5276 44.0305 57.1277 43.6068 56.7161 43.1952C55.8902 42.3694 54.9806 41.635 54.1105 40.8576C52.5714 39.4822 50.6324 39.6255 48.8185 40.2928C48.1479 40.5395 47.5225 40.8534 46.8646 41.118C46.1355 41.4113 44.0098 42.3124 42.8965 42.5722C42.3015 41.62 41.4508 39.5524 41.1441 38.846C40.7037 37.8315 40.2339 36.8312 39.7746 35.8254C38.699 33.4699 35.4656 33.0797 33.1876 33.0304C31.6895 32.998 29.9791 33.0957 28.5034 33.3775C25.0983 34.0276 24.7705 36.0955 23.5765 38.846C23.2698 39.5524 22.419 41.6201 21.8241 42.5722C20.7108 42.3125 18.5854 41.4115 17.8563 41.1182C16.8926 40.7306 15.9229 40.3552 14.9481 39.9961C13.4634 39.4489 12.0424 39.8812 10.8074 40.6813V20.5723L100.581 20.5723Z" fill="white"/>
<path d="M72.5072 5.51533V12.9964H79.9883V5.51533H72.5072ZM59.4254 12.9964H66.9064V5.51533H59.4254V12.9964ZM85.6272 5.51533V12.9964H93.1082V5.51533H85.6272ZM12.6776 0H98.7103C99.7433 0 100.581 0.837388 100.581 1.87035V18.7028H10.8073V1.87035C10.8073 0.837388 11.6447 0 12.6776 0Z" fill="white"/>
</svg>
