<svg width="101" height="100" viewBox="0 0 101 100" fill="none" xmlns="http://www.w3.org/2000/svg">
<path fill-rule="evenodd" clip-rule="evenodd" d="M37.8754 36.6933C38.3229 37.5911 38.7772 38.6374 39.229 39.678C40.2478 42.0249 41.2518 44.3372 42.0248 44.6642C42.8143 44.9981 45.2322 44.0255 47.6437 43.0556C49.0629 42.4847 51.3622 41.0773 52.7194 42.415C53.6395 43.1596 54.4808 43.9133 55.2397 44.6721C56.0454 45.4778 56.8452 46.3764 57.6349 47.3635C58.1171 47.9663 58.219 48.7479 57.9582 49.419C57.656 50.2862 57.2572 51.2778 56.8581 52.27C55.8882 54.6815 54.9156 57.0994 55.2495 57.8888C55.5765 58.6619 57.8889 59.6659 60.2358 60.6848C61.6123 61.2824 64.3712 61.9912 64.5028 63.819C64.6965 65.5087 65.5725 72.09 63.2204 73.0688C62.3227 73.5163 61.2763 73.9706 60.2358 74.4223C57.8889 75.4413 55.5765 76.4453 55.2496 77.2182C54.9157 78.0077 55.8882 80.4255 56.8582 82.8369C57.2693 83.8591 57.6802 84.8807 57.9854 85.7662C58.2524 86.5415 58.0378 87.3658 57.4987 87.9127C56.1888 89.5314 52.5927 93.9682 50.4934 93.1511C49.6265 92.849 48.6354 92.4503 47.6436 92.0515C45.2322 91.0816 42.8143 90.1091 42.0249 90.443C41.2518 90.7699 40.2478 93.0823 39.229 95.4291C38.6314 96.8057 37.9225 99.5646 36.0947 99.6962C33.8264 99.9564 27.7689 100.634 26.845 98.4139C26.3975 97.5162 25.9432 96.4699 25.4913 95.4291C24.4726 93.0823 23.4686 90.7699 22.6955 90.443C21.9061 90.1091 19.4882 91.0816 17.0769 92.0515C16.0546 92.4627 15.0331 92.8736 14.1475 93.1788C13.3722 93.4458 12.5479 93.2311 12.0011 92.6921C11.0809 91.9475 10.2395 91.1938 9.48058 90.4349C8.42011 89.3745 6.0865 87.4258 6.76229 85.6876C7.06451 84.8202 7.46336 83.8288 7.86244 82.8366C8.83229 80.4254 9.80468 78.0077 9.47087 77.2183C9.14391 76.4453 6.83149 75.4412 4.48461 74.4224C3.10805 73.8248 0.34916 73.1159 0.217534 71.2881C0.151573 70.713 0.099097 70.1062 0.0612617 69.467C0.0208834 68.7834 0 68.1444 0 67.5536C0 66.9629 0.0208834 66.3241 0.0612617 65.6407C0.101255 64.9654 0.157507 64.3264 0.228785 63.7223C0.320484 62.9455 0.825751 62.3189 1.49985 62.0384C2.39758 61.5909 3.44387 61.1366 4.48469 60.6847C6.83149 59.666 9.1439 58.6619 9.47079 57.8889C9.80468 57.0994 8.83213 54.6816 7.86221 52.2703C7.45103 51.248 7.04008 50.2264 6.73493 49.3409C6.46792 48.5656 6.6826 47.7413 7.22162 47.1945C7.96623 46.2743 8.71994 45.4329 9.4788 44.674C10.5393 43.6135 12.488 41.2799 14.2262 41.9557C15.0935 42.2579 16.085 42.6568 17.0772 43.0558C19.4884 44.0257 21.9061 44.9981 22.6954 44.6643C23.4685 44.3373 24.4725 42.0249 25.4914 39.678C26.6597 36.9864 26.656 35.8564 28.8948 35.4288C30.9243 35.0415 37.0053 34.6025 37.8754 36.6933ZM32.3602 51.2994C36.8483 51.2994 40.9119 53.1188 43.8534 56.0603C46.795 59.0018 48.6144 63.0654 48.6144 67.5536C48.6144 72.0417 46.795 76.1053 43.8534 79.0468C40.9119 81.9884 36.8483 83.8078 32.3602 83.8078C27.872 83.8078 23.8085 81.9884 20.8669 79.0468C17.9254 76.1053 16.106 72.0417 16.106 67.5536C16.106 63.0654 17.9254 59.0019 20.8669 56.0603C23.8085 53.1188 27.872 51.2994 32.3602 51.2994ZM40.9012 59.0126C38.7155 56.8269 35.6958 55.475 32.3602 55.475C29.0246 55.475 26.0048 56.8269 23.8192 59.0126C21.6335 61.1982 20.2816 64.218 20.2816 67.5536C20.2816 70.8892 21.6335 73.9089 23.8192 76.0946C26.0048 78.2803 29.0246 79.6322 32.3602 79.6322C35.6958 79.6322 38.7155 78.2803 40.9012 76.0946C43.0868 73.9089 44.4388 70.8892 44.4388 67.5536C44.4388 64.218 43.0869 61.1982 40.9012 59.0126ZM32.3602 59.6993C34.5287 59.6993 36.4924 60.5785 37.9138 61.9999C39.3352 63.4214 40.2144 65.3851 40.2144 67.5536C40.2144 69.7222 39.3352 71.6858 37.9138 73.1072C36.4924 74.5286 34.5287 75.4078 32.3602 75.4078C30.1916 75.4078 28.228 74.5286 26.8066 73.1072C25.3851 71.6858 24.5059 69.7222 24.5059 67.5536C24.5059 65.3851 25.3852 63.4214 26.8066 61.9999C28.228 60.5785 30.1916 59.6993 32.3602 59.6993ZM34.9616 64.9522C34.296 64.2866 33.3761 63.8749 32.3602 63.8749C31.3441 63.8749 30.4243 64.2866 29.7588 64.9522C29.0933 65.6177 28.6815 66.5376 28.6815 67.5536C28.6815 68.5697 29.0933 69.4894 29.7588 70.155C30.4243 70.8205 31.3441 71.2322 32.3602 71.2322C33.3761 71.2322 34.296 70.8205 34.9616 70.155C35.6271 69.4894 36.0388 68.5696 36.0388 67.5536C36.0388 66.5376 35.6271 65.6177 34.9616 64.9522Z" fill="#0A0A0A"/>
<path fill-rule="evenodd" clip-rule="evenodd" d="M100.581 20.5732V75.7151C100.581 76.5611 99.7432 77.2469 98.7103 77.2469H58.9856C59.8159 76.8657 60.6637 76.5129 61.0672 76.3377C62.0817 75.8973 63.082 75.4276 64.0878 74.9682C67.7299 73.3049 66.8851 66.8784 66.5816 63.6254C66.3974 61.6503 64.8941 60.4408 63.2152 59.6521C62.5057 59.3187 61.7792 59.0791 61.0672 58.7701C60.3608 58.4634 58.2931 57.6126 57.3409 57.0176C57.6007 55.9043 58.5018 53.7785 58.7951 53.0494C59.1828 52.0856 59.5583 51.1158 59.9174 50.141C60.4256 48.7613 60.1972 47.2081 59.2734 46.0532L57.9692 44.4228L57.9164 44.4651C57.5276 44.0315 57.1277 43.6078 56.7161 43.1962C55.8902 42.3704 54.9806 41.636 54.1105 40.8586C52.5714 39.4832 50.6324 39.6265 48.8185 40.2938C48.1479 40.5404 47.5225 40.8544 46.8646 41.119C46.1355 41.4123 44.0098 42.3134 42.8965 42.5731C42.3015 41.621 41.4508 39.5533 41.1441 38.8469C40.7037 37.8325 40.2339 36.8322 39.7746 35.8263C38.699 33.4709 35.4656 33.0807 33.1876 33.0314C31.6895 32.999 29.9791 33.0967 28.5034 33.3785C25.0983 34.0286 24.7705 36.0964 23.5765 38.847C23.2698 39.5534 22.419 41.6211 21.8241 42.5732C20.7108 42.3135 18.5854 41.4125 17.8563 41.1192C16.8926 40.7316 15.9229 40.3562 14.9481 39.997C13.4634 39.4499 12.0424 39.8821 10.8074 40.6822V20.5733L100.581 20.5732Z" fill="#0A0A0A"/>
<path d="M72.5071 5.51533V12.9964H79.9881V5.51533H72.5071ZM59.4253 12.9964H66.9063V5.51533H59.4253V12.9964ZM85.627 5.51533V12.9964H93.108V5.51533H85.627ZM12.6775 0H98.7102C99.7431 0 100.581 0.837388 100.581 1.87035V18.7028H10.8071V1.87035C10.8071 0.837388 11.6446 0 12.6775 0Z" fill="#0A0A0A"/>
</svg>
